<svg xmlns="http://www.w3.org/2000/svg" xmlns:xlink="http://www.w3.org/1999/xlink" fill="none" version="1.1" width="131" height="111" viewBox="0 0 131 111"><g style="mix-blend-mode:passthrough"><g><path d="M8.44924545288086,85.82719619445801C8.44924545288086,85.82719619445801,25.00664545288086,85.82719619445801,25.00664545288086,85.82719619445801C25.00664545288086,85.82719619445801,25.00664545288086,106.541796194458,25.00664545288086,106.541796194458C25.00664545288086,106.541796194458,8.44924545288086,106.541796194458,8.44924545288086,106.541796194458C8.44924545288086,106.541796194458,8.44924545288086,85.82719619445801,8.44924545288086,85.82719619445801C8.44924545288086,85.82719619445801,8.44924545288086,85.82719619445801,8.44924545288086,85.82719619445801ZM41.56394545288086,52.71249619445801C41.56394545288086,52.71249619445801,58.12134545288086,52.71249619445801,58.12134545288086,52.71249619445801C58.12134545288086,52.71249619445801,58.12134545288086,106.541796194458,58.12134545288086,106.541796194458C58.12134545288086,106.541796194458,41.56394545288086,106.541796194458,41.56394545288086,106.541796194458C41.56394545288086,106.541796194458,41.56394545288086,52.71249619445801,41.56394545288086,52.71249619445801C41.56394545288086,52.71249619445801,41.56394545288086,52.71249619445801,41.56394545288086,52.71249619445801ZM70.59304545288086,69.269896194458C70.59304545288086,69.269896194458,87.15044545288086,69.269896194458,87.15044545288086,69.269896194458C87.15044545288086,69.269896194458,87.15044545288086,106.541796194458,87.15044545288086,106.541796194458C87.15044545288086,106.541796194458,70.59304545288086,106.541796194458,70.59304545288086,106.541796194458C70.59304545288086,106.541796194458,70.59304545288086,69.269896194458,70.59304545288086,69.269896194458C70.59304545288086,69.269896194458,70.59304545288086,69.269896194458,70.59304545288086,69.269896194458ZM107.79334545288086,31.997896194458008C107.79334545288086,31.997896194458008,124.35024545288086,31.997896194458008,124.35024545288086,31.997896194458008C124.35024545288086,31.997896194458008,124.35024545288086,102.38459619445801,124.35024545288086,102.38459619445801C124.35024545288086,102.38459619445801,107.79334545288086,102.38459619445801,107.79334545288086,102.38459619445801C107.79334545288086,102.38459619445801,107.79334545288086,31.997896194458008,107.79334545288086,31.997896194458008C107.79334545288086,31.997896194458008,107.79334545288086,31.997896194458008,107.79334545288086,31.997896194458008Z" fill="#CAE4FF" fill-opacity="1"/></g><g><path d="M16.90361583099365,71.88902377929688C21.705915830993654,71.88902377929688,25.648215830993653,67.94682377929688,25.576515830993653,63.14442377929687C25.576515830993653,61.99762377929687,25.361515830993653,60.92242377929688,24.931415830993654,59.84732377929687C24.931415830993654,59.84732377929687,45.646015830993655,39.132723779296875,45.646015830993655,39.132723779296875C46.72121583099365,39.562723779296874,47.79631583099365,39.777823779296874,48.943115830993655,39.777823779296874C51.02181583099365,39.777823779296874,52.95711583099365,38.989323779296875,54.53401583099365,37.627423779296876C54.53401583099365,37.627423779296876,72.45321583099366,46.587123779296874,72.45321583099366,46.587123779296874C72.45321583099366,46.80212377929688,72.30981583099366,46.945423779296874,72.30981583099366,47.160523779296874C72.30981583099366,51.962823779296876,76.18041583099365,55.90512377929687,80.98271583099366,55.90512377929687C85.78511583099365,55.90512377929687,89.72731583099365,52.034523779296876,89.72731583099365,47.23222377929687C89.72731583099365,46.08532377929688,89.51231583099366,44.93852377929687,89.08221583099365,43.86342377929687C89.08221583099365,43.86342377929687,109.94001583099366,17.773023779296874,109.94001583099366,17.773023779296874C114.38401583099365,19.564923779296876,119.47301583099365,17.414623779296875,121.26501583099365,12.970623779296876C122.55501583099365,9.745183779296875,121.83901583099365,6.017993779296875,119.33001583099366,3.580983779296875C115.88901583099366,0.28383777929687504,110.44201583099365,0.28383777929687504,107.00141583099365,3.580983779296875C104.49271583099365,6.089663779296875,103.77601583099366,9.816863779296876,105.13781583099365,13.114023779296875C105.13781583099365,13.114023779296875,84.27991583099366,39.204423779296874,84.27991583099366,39.204423779296874C81.34111583099366,38.12922377929687,77.97231583099365,38.63092377929687,75.53531583099365,40.70962377929688C75.53531583099365,40.70962377929688,57.54441583099365,31.750023779296875,57.54441583099365,31.750023779296875C57.54441583099365,31.534923779296875,57.68771583099365,31.391623779296875,57.68771583099365,31.176623779296875C57.68771583099365,28.882923779296874,56.75591583099365,26.660923779296876,55.179015830993656,25.012323779296874C51.73861583099365,21.715223779296874,46.291115830993654,21.715223779296874,42.850615830993654,25.012323779296874C40.41361583099365,27.521023779296875,39.62521583099365,31.248223779296875,40.987015830993656,34.473723779296876C40.987015830993656,34.473723779296876,20.20071583099365,55.26002377929687,20.20071583099365,55.26002377929687C16.97529583099365,53.969823779296874,13.319785830993652,54.75822377929688,10.739415830993652,57.12362377929688C7.298923830993653,60.49242377929688,7.298923830993653,66.01152377929688,10.667735830993653,69.45202377929688C12.387975830993653,71.02892377929687,14.609955830993652,71.96072377929687,16.903625830993654,71.88902377929688C16.903625830993654,71.88902377929688,16.90361583099365,71.88902377929688,16.90361583099365,71.88902377929688ZM111.80401583099365,8.311643779296876C112.59201583099365,7.594883779296875,113.88201583099365,7.594883779296875,114.59901583099365,8.454983779296875C115.31601583099365,9.243443779296875,115.31601583099365,10.390263779296875,114.59901583099365,11.178723779296876C113.81101583099365,11.895523779296875,112.59201583099365,11.895523779296875,111.80401583099365,11.178723779296876C111.01501583099365,10.318603779296875,111.01501583099365,9.100103779296875,111.80401583099365,8.311643779296876C111.80401583099365,8.311643779296876,111.80401583099365,8.311643779296876,111.80401583099365,8.311643779296876ZM79.69251583099366,45.726923779296875C80.48101583099366,44.93852377929687,81.69951583099365,44.93852377929687,82.48791583099366,45.726923779296875C83.27641583099366,46.515423779296874,83.27641583099366,47.73392377929687,82.48791583099366,48.522323779296876C81.69951583099365,49.239123779296875,80.48101583099366,49.239123779296875,79.69251583099366,48.522323779296876C78.90411583099365,47.73392377929687,78.90411583099365,46.515423779296874,79.69251583099366,45.726923779296875C79.69251583099366,45.726923779296875,79.69251583099366,45.726923779296875,79.69251583099366,45.726923779296875ZM47.58131583099365,29.671323779296873C48.369715830993655,28.882923779296874,49.588215830993654,28.882923779296874,50.37671583099365,29.671323779296873C51.16511583099365,30.459823779296876,51.16511583099365,31.678323779296875,50.37671583099365,32.46672377929687C49.588215830993654,33.18352377929688,48.369715830993655,33.18352377929688,47.58131583099365,32.46672377929687C46.93621583099365,31.749923779296875,46.93621583099365,30.459823779296876,47.58131583099365,29.671323779296873C47.58131583099365,29.671323779296873,47.58131583099365,29.671323779296873,47.58131583099365,29.671323779296873ZM15.541755830993653,61.78262377929688C16.330205830993652,60.99412377929688,17.548705830993654,60.99412377929688,18.337115830993653,61.78262377929688C19.125615830993652,62.57102377929687,19.125615830993652,63.86122377929688,18.337115830993653,64.57802377929687C17.548705830993654,65.29472377929687,16.330205830993652,65.29472377929687,15.541755830993653,64.57802377929687C14.896675830993653,63.86122377929688,15.040015830993653,62.64272377929687,15.541755830993653,61.78262377929688C15.541755830993653,61.78262377929688,15.541755830993653,61.78262377929688,15.541755830993653,61.78262377929688Z" fill="#0972E7" fill-opacity="1"/></g><g><path d="M126.5692255859375,102.63837063293457C126.5692255859375,102.63837063293457,124.5622255859375,102.63837063293457,124.5622255859375,102.63837063293457C124.5622255859375,102.63837063293457,124.5622255859375,31.10487063293457,124.5622255859375,31.10487063293457C124.5622255859375,29.24129063293457,123.0572255859375,27.73607063293457,121.1932255859375,27.73607063293457C121.1932255859375,27.73607063293457,105.1382255859375,27.73607063293457,105.1382255859375,27.73607063293457C103.2742255859375,27.73607063293457,101.7692255859375,29.24129063293457,101.7692255859375,31.10487063293457C101.7692255859375,31.10487063293457,101.7692255859375,102.63837063293457,101.7692255859375,102.63837063293457C101.7692255859375,102.63837063293457,92.4510255859375,102.63837063293457,92.4510255859375,102.63837063293457C92.4510255859375,102.63837063293457,92.4510255859375,68.52017063293457,92.4510255859375,68.52017063293457C92.4510255859375,66.65657063293457,90.9458255859375,65.15137063293457,89.0822255859375,65.15137063293457C89.0822255859375,65.15137063293457,73.0266255859375,65.15137063293457,73.0266255859375,65.15137063293457C71.1630255859375,65.15137063293457,69.6578255859375,66.65657063293457,69.6578255859375,68.52017063293457C69.6578255859375,68.52017063293457,69.6578255859375,102.63837063293457,69.6578255859375,102.63837063293457C69.6578255859375,102.63837063293457,60.4114255859375,102.63837063293457,60.4114255859375,102.63837063293457C60.4114255859375,102.63837063293457,60.4114255859375,52.536270632934574,60.4114255859375,52.536270632934574C60.4114255859375,50.67267063293457,58.9062255859375,49.16747063293457,57.0426255859375,49.16747063293457C57.0426255859375,49.16747063293457,40.9870255859375,49.16747063293457,40.9870255859375,49.16747063293457C39.1234255859375,49.16747063293457,37.6182255859375,50.67267063293457,37.6182255859375,52.536270632934574C37.6182255859375,52.536270632934574,37.6182255859375,102.63837063293457,37.6182255859375,102.63837063293457C37.6182255859375,102.63837063293457,28.3002255859375,102.63837063293457,28.3002255859375,102.63837063293457C28.3002255859375,102.63837063293457,28.3002255859375,84.57587063293457,28.3002255859375,84.57587063293457C28.3002255859375,82.71227063293458,26.7950255859375,81.20697063293457,24.9314255859375,81.20697063293457C24.9314255859375,81.20697063293457,8.8758055859375,81.20697063293457,8.8758055859375,81.20697063293457C7.0122055859375,81.20697063293457,5.5069855859375,82.71227063293458,5.5069855859375,84.57587063293457C5.5069855859375,84.57587063293457,5.5069855859375,102.63837063293457,5.5069855859375,102.63837063293457C5.5069855859375,102.63837063293457,3.5000355859375,102.63837063293457,3.5000355859375,102.63837063293457C1.6364355859375,102.63837063293457,0.1312255859375,104.14367063293457,0.1312255859375,106.00717063293457C0.1312255859375,107.87077063293457,1.6364355859375,109.37607063293457,3.5000355859375,109.37607063293457C3.5000355859375,109.37607063293457,126.4972255859375,109.37607063293457,126.4972255859375,109.37607063293457C128.3612255859375,109.37607063293457,129.8662255859375,107.87077063293457,129.8662255859375,106.00717063293457C129.9382255859375,104.14367063293457,128.4332255859375,102.63837063293457,126.5692255859375,102.63837063293457C126.5692255859375,102.63837063293457,126.5692255859375,102.63837063293457,126.5692255859375,102.63837063293457ZM12.2446255859375,102.63837063293457C12.2446255859375,102.63837063293457,12.2446255859375,87.94467063293456,12.2446255859375,87.94467063293456C12.2446255859375,87.94467063293456,21.5626255859375,87.94467063293456,21.5626255859375,87.94467063293456C21.5626255859375,87.94467063293456,21.5626255859375,102.63837063293457,21.5626255859375,102.63837063293457C21.5626255859375,102.63837063293457,12.2446255859375,102.63837063293457,12.2446255859375,102.63837063293457C12.2446255859375,102.63837063293457,12.2446255859375,102.63837063293457,12.2446255859375,102.63837063293457ZM44.3558255859375,102.63837063293457C44.3558255859375,102.63837063293457,44.3558255859375,55.833370632934574,44.3558255859375,55.833370632934574C44.3558255859375,55.833370632934574,53.6738255859375,55.833370632934574,53.6738255859375,55.833370632934574C53.6738255859375,55.833370632934574,53.6738255859375,102.63837063293457,53.6738255859375,102.63837063293457C53.6738255859375,102.63837063293457,44.3558255859375,102.63837063293457,44.3558255859375,102.63837063293457C44.3558255859375,102.63837063293457,44.3558255859375,102.63837063293457,44.3558255859375,102.63837063293457ZM76.4671255859375,102.63837063293457C76.4671255859375,102.63837063293457,76.4671255859375,71.88907063293456,76.4671255859375,71.88907063293456C76.4671255859375,71.88907063293456,85.7851255859375,71.88907063293456,85.7851255859375,71.88907063293456C85.7851255859375,71.88907063293456,85.7851255859375,102.63837063293457,85.7851255859375,102.63837063293457C85.7851255859375,102.63837063293457,76.4671255859375,102.63837063293457,76.4671255859375,102.63837063293457C76.4671255859375,102.63837063293457,76.4671255859375,102.63837063293457,76.4671255859375,102.63837063293457ZM108.5782255859375,102.63837063293457C108.5782255859375,102.63837063293457,108.5782255859375,34.47371063293457,108.5782255859375,34.47371063293457C108.5782255859375,34.47371063293457,117.8962255859375,34.47371063293457,117.8962255859375,34.47371063293457C117.8962255859375,34.47371063293457,117.8962255859375,102.63837063293457,117.8962255859375,102.63837063293457C117.8962255859375,102.63837063293457,108.5782255859375,102.63837063293457,108.5782255859375,102.63837063293457C108.5782255859375,102.63837063293457,108.5782255859375,102.63837063293457,108.5782255859375,102.63837063293457Z" fill="#0972E7" fill-opacity="1"/></g></g></svg>