<svg xmlns="http://www.w3.org/2000/svg" xmlns:xlink="http://www.w3.org/1999/xlink" fill="none" version="1.1" width="130" height="154" viewBox="0 0 130 154"><g style="mix-blend-mode:passthrough"><g><path d="M5.686803817749023,66.35893611450194C5.686819076549024,99.12603611450196,32.249803817749026,125.68873611450195,65.01700381774901,125.68873611450195C97.78410381774903,125.68873611450195,124.34680381774902,99.12603611450196,124.34680381774902,66.35893611450194C124.34680381774902,33.591736114501956,97.78410381774903,7.028736114501957,65.01700381774901,7.028736114501957C32.249803817749026,7.028736114501957,5.686803817749023,33.591736114501956,5.686803817749023,66.35893611450194C5.686803817749023,66.35893611450194,5.686803817749023,66.35893611450194,5.686803817749023,66.35893611450194Z" fill="#FFBAB0" fill-opacity="1"/></g><g><path d="M65.00001479797363,128.3947334022522C30.74051479797363,128.38573340225219,2.9744826279736327,100.6070334022522,2.980715847243633,66.3476334022522C2.980708217843633,32.0994334022522,30.751814797973633,4.3258481022521975,65.01121479797364,4.322733402252197C99.27631479797363,4.322733402252197,127.04971479797364,32.0938334022522,127.05271479797364,66.3532334022522C127.01871479797363,100.6082334022522,99.25491479797363,128.36673340225218,65.00001479797363,128.3947334022522C65.00001479797363,128.3947334022522,65.00001479797363,128.3947334022522,65.00001479797363,128.3947334022522ZM65.00001479797363,9.734873402252198C33.71801479797364,9.744223402252198,8.366514797973633,35.1108334022522,8.375854797973632,66.3928334022522C8.385214797973632,97.67483340225219,33.75181479797364,123.02673340225219,65.03381479797363,123.0167334022522C96.31581479797363,123.0077334022522,121.66771479797363,97.6409334022522,121.65771479797364,66.3589334022522C121.62071479797363,35.0886334022522,96.27041479797363,9.753503402252196,65.00001479797363,9.734873402252198C65.00001479797363,9.734873402252198,65.00001479797363,9.734873402252198,65.00001479797363,9.734873402252198Z" fill="#783741" fill-opacity="1"/></g><g><path d="M47.17382437591553,21.726058682250976C43.669224375915526,13.501608682250977,34.85922437591553,8.880928682250977,26.100724375915526,10.673637682250977C17.342314375915528,12.466348682250977,11.056335875915527,20.176938682250977,11.065033390345528,29.116958682250978C11.065033390345528,34.30925868225098,15.597654375915528,41.80155868225098,18.99713437591553,45.201058682250974C27.030724375915526,35.76365868225098,35.148824375915524,25.734358682250978,47.17382437591553,21.726058682250976C47.17382437591553,21.726058682250976,47.17382437591553,21.726058682250976,47.17382437591553,21.726058682250976Z" fill="#FFFFFF" fill-opacity="1"/></g><g><path d="M18.997156712341308,49.24319478149414C17.923956712341308,49.248894781494144,16.89371671234131,48.82219478149414,16.138866712341308,48.05929478149414C12.350386712341308,44.27079478149414,7.022857508133309,35.89899478149414,7.022857508133309,29.116994781494142C7.020011742341309,18.26559478149414,14.649826712341309,8.90894478149414,25.27975671234131,6.728004781494141C35.909756712341306,4.547074781494141,46.60745671234131,10.143474781494142,50.877656712341306,20.11929478149414C51.32445671234131,21.15609478149414,51.31715671234131,22.33249478149414,50.857756712341306,23.36369478149414C50.39845671234131,24.39489478149414,49.528756712341306,25.18699478149414,48.45915671234131,25.548394781494142C38.04085671234131,29.03239478149414,30.480856712341307,37.945394781494144,23.08985671234131,46.53709478149414C23.08985671234131,46.53709478149414,22.00745671234131,47.82249478149414,22.00745671234131,47.82249478149414C21.27285671234131,48.68319478149414,20.212256712341308,49.19809478149414,19.08155671234131,49.24309478149414C19.08155671234131,49.24309478149414,18.997156712341308,49.24319478149414,18.997156712341308,49.24319478149414C18.997156712341308,49.24319478149414,18.997156712341308,49.24319478149414,18.997156712341308,49.24319478149414ZM29.87205671234131,14.35208478149414C21.728056712341306,14.370724781494141,15.133366712341308,20.97299478149414,15.124056712341309,29.116994781494142C15.124056712341309,31.68779478149414,16.916836712341308,35.66229478149414,19.064756712341307,38.85879478149414C25.457756712341308,31.41709478149414,32.205956712341305,24.09389478149414,41.28825671234131,19.74729478149414C38.484056712341314,16.32839478149414,34.29385671234131,14.348164781494141,29.87205671234131,14.352104781494141C29.87205671234131,14.352104781494141,29.87205671234131,14.35208478149414,29.87205671234131,14.35208478149414Z" fill="#783741" fill-opacity="1"/></g><g><path d="M82.85995483367188,21.72612138442993C86.37735276367188,13.523891384429932,95.17473276367187,8.923121384429932,103.91783276367187,10.713535384429932C112.66093276367188,12.503941384429933,118.94183276367187,20.192461384429933,118.95183276367187,29.117021384429933C118.52283276367187,34.94982138442993,116.13933276367187,40.46752138442993,112.18663276367187,44.77822138442993C104.17003276367187,35.34092138442993,94.88503276367187,25.73442138442993,82.85983276367188,21.72602138442993C82.85983276367188,21.72602138442993,82.85995483367188,21.72612138442993,82.85995483367188,21.72612138442993Z" fill="#FFFFFF" fill-opacity="1"/></g><g><path d="M112.22046403808594,48.82040802001953C112.22046403808594,48.82040802001953,112.05136403808594,48.82040802001953,112.05136403808594,48.82040802001953C110.92606403808594,48.77280802001953,109.87176403808594,48.25790802001953,109.14236403808593,47.39970802001953C101.31166403808594,38.23300802001953,92.56776403808594,29.23530802001953,81.57452403808594,25.54830802001953C80.50189403808594,25.190608020019532,79.62811503808594,24.39990802001953,79.16528603808594,23.36830802001953C78.70257803808593,22.336608020019533,78.69305703808594,21.158308020019533,79.13898003808593,20.11930802001953C83.42358403808593,10.15761802001953,94.11586403808593,4.575258020019531,104.73866403808594,6.753901020019531C115.36156403808593,8.932538020019532,122.99336403808593,18.272908020019532,123.01076403808594,29.11690802001953C123.01076403808594,35.74670802001953,118.96866403808593,43.72960802001953,115.07866403808595,47.72100802001953C114.30696403808594,48.44820802001953,113.28056403808594,48.84300802001953,112.22036403808593,48.82040802001953C112.22036403808593,48.82040802001953,112.22046403808594,48.82040802001953,112.22046403808594,48.82040802001953ZM88.76239403808594,19.713408020019532C97.84456403808593,23.92470802001953,105.30306403808594,30.89270802001953,111.96676403808594,38.31750802001953C113.66276403808594,35.52090802001953,114.67116403808595,32.36200802001953,114.90956403808593,29.10000802001953C114.90196403808594,22.87560802001953,110.99186403808594,17.32450802001953,105.13346403808593,15.221388020019532C99.27506403808593,13.11829802001953,92.72716403808593,14.914998020019532,88.76239403808594,19.713408020019532C88.76239403808594,19.713408020019532,88.76239403808594,19.713408020019532,88.76239403808594,19.713408020019532Z" fill="#783741" fill-opacity="1"/></g><g><path d="M49.69394931640625,127.10967547607422C49.69394931640625,127.10967547607422,27.28439331640625,149.51917547607422,27.28439331640625,149.51917547607422C27.28439331640625,149.51917547607422,27.25054931640625,113.56267547607422,27.25054931640625,113.56267547607422C27.25054931640625,113.56267547607422,49.69394931640625,127.10977547607422,49.69394931640625,127.10977547607422C49.69394931640625,127.10977547607422,49.69394931640625,127.10967547607422,49.69394931640625,127.10967547607422Z" fill="#FFBAB0" fill-opacity="1"/></g><g><path d="M27.284378017578124,153.49374403076172C25.051938017578124,153.49374403076172,23.242218017578153,151.68404403076173,23.242218017578153,149.4515440307617C23.242218017578153,149.4515440307617,23.242218017578153,113.49504403076172,23.242218017578153,113.49504403076172C23.268188517578125,112.04814403076172,24.065659017578124,110.72551403076172,25.333118017578126,110.02726903076172C26.600568017578127,109.32896503076172,28.144608017578125,109.36137503076172,29.381558017578126,110.11241303076172C29.381558017578126,110.11241303076172,51.824818017578124,123.64264403076172,51.824818017578124,123.64264403076172C52.87991801757812,124.29414403076171,53.58281801757812,125.38884403076172,53.736018017578125,126.61934403076172C53.89881801757812,127.86424403076171,53.473818017578125,129.1141440307617,52.58591801757812,130.00184403076173C52.58591801757812,130.00184403076173,30.142668017578124,152.37744403076172,30.142668017578124,152.37744403076172C29.374678017578127,153.11234403076173,28.347168017578124,153.51364403076172,27.284408017578123,153.49384403076172C27.284408017578123,153.49384403076172,27.284378017578124,153.49374403076172,27.284378017578124,153.49374403076172ZM31.309618017578124,120.66584403076172C31.309618017578124,120.66584403076172,31.309618017578124,139.76044403076173,31.309618017578124,139.76044403076173C31.309618017578124,139.76044403076173,43.14861801757813,127.92144403076172,43.14861801757813,127.92144403076172C43.14861801757813,127.92144403076172,31.309618017578124,120.66584403076172,31.309618017578124,120.66584403076172C31.309618017578124,120.66584403076172,31.309618017578124,120.66584403076172,31.309618017578124,120.66584403076172Z" fill="#783741" fill-opacity="1"/></g><g><path d="M81.69287109375,127.10967547607422C81.69287109375,127.10967547607422,104.08547109375,149.51917547607422,104.08547109375,149.51917547607422C104.08547109375,149.51917547607422,104.11937109375,113.56267547607422,104.11937109375,113.56267547607422C104.11937109375,113.56267547607422,81.69287109375,127.10977547607422,81.69287109375,127.10977547607422C81.69287109375,127.10977547607422,81.69287109375,127.10967547607422,81.69287109375,127.10967547607422Z" fill="#FFBAB0" fill-opacity="1"/></g><g><path d="M104.08540128173829,153.49383559570313C103.01290128173828,153.49563559570313,101.98410128173828,153.06953559570312,101.22720128173827,152.30983559570313C101.22720128173827,152.30983559570313,78.83471128173828,129.96803559570313,78.83471128173828,129.96803559570313C77.95257328173828,129.09033559570312,77.52380128173829,127.85523559570312,77.67248338173827,126.61973559570313C77.82110428173829,125.38423559570313,78.53057628173828,124.28613559570313,79.59576128173828,123.64273559570313C79.59576128173828,123.64273559570313,102.03910128173828,110.11241359570313,102.03910128173828,110.11241359570313C103.27340128173827,109.35881259570313,104.81730128173828,109.32530359570312,106.08310128173828,110.02470559570313C107.34910128173829,110.72404559570313,108.14250128173828,112.04887559570312,108.16160128173829,113.49504559570312C108.16160128173829,113.49504559570312,108.16160128173829,149.51923559570312,108.16160128173829,149.51923559570312C108.14570128173828,151.17243559570312,107.12900128173828,152.65083559570314,105.59080128173828,153.25703559570312C105.10780128173829,153.42743559570312,104.59750128173829,153.5078355957031,104.08550128173829,153.49383559570313C104.08550128173829,153.49383559570313,104.08540128173829,153.49383559570313,104.08540128173829,153.49383559570313ZM88.20430128173828,127.90463559570313C88.20430128173828,127.90463559570313,100.04330128173828,139.74353559570312,100.04330128173828,139.74353559570312C100.04330128173828,139.74353559570312,100.04330128173828,120.73353559570313,100.04330128173828,120.73353559570313C100.04330128173828,120.73353559570313,88.20430128173828,127.90463559570313,88.20430128173828,127.90463559570313C88.20430128173828,127.90463559570313,88.20430128173828,127.90463559570313,88.20430128173828,127.90463559570313Z" fill="#783741" fill-opacity="1"/></g><g><path d="M5.686803817749023,77.14934901733398C5.686819076549024,109.91644901733399,32.249803817749026,136.47914901733398,65.01700381774901,136.47914901733398C97.78410381774903,136.47914901733398,124.34680381774902,109.91644901733399,124.34680381774902,77.14934901733398C124.34680381774902,44.38214901733399,97.78410381774903,17.819149017333984,65.01700381774901,17.819149017333984C32.249803817749026,17.819149017333984,5.686803817749023,44.38214901733399,5.686803817749023,77.14934901733398C5.686803817749023,77.14934901733398,5.686803817749023,77.14934901733398,5.686803817749023,77.14934901733398Z" fill="#FFBAB0" fill-opacity="1"/></g><g><path d="M65.00001479797363,139.18511721801758C30.74051479797363,139.17611721801757,2.9744826279736327,111.39741721801758,2.980715847243633,77.13801721801758C2.9807005884736326,42.88981721801758,30.751814797973633,15.116230008017578,65.01121479797364,15.113117218017578C99.27631479797363,15.113117218017578,127.04971479797364,42.88421721801758,127.05271479797364,77.14361721801758C127.01871479797363,111.39861721801758,99.25491479797363,139.15711721801756,65.00001479797363,139.18511721801758C65.00001479797363,139.18511721801758,65.00001479797363,139.18511721801758,65.00001479797363,139.18511721801758ZM65.00001479797363,20.50824721801758C33.72021479797363,20.517597218017578,8.369634797973632,45.88081721801758,8.375854797973632,77.16061721801758C8.375854797973632,108.42911721801758,33.73151479797363,133.78711721801758,65.01131479797363,133.7901172180176C96.29671479797364,133.7901172180176,121.65471479797364,108.43471721801758,121.65771479797364,77.15491721801757C121.63271479797363,45.87571721801758,96.27921479797364,20.526897218017577,65.00001479797363,20.508257218017576C65.00001479797363,20.508257218017576,65.00001479797363,20.50824721801758,65.00001479797363,20.50824721801758Z" fill="#783741" fill-opacity="1"/></g><g><path d="M104.08529272460937,153.49363500976563C103.04329272460937,153.49463500976563,102.04129272460938,153.08863500976562,101.29529272460937,152.36063500976562C101.29529272460937,152.36063500976562,86.39459272460938,138.05263500976562,86.39459272460938,138.05263500976562C79.62929272460937,140.21063500976564,72.55699272460937,141.25063500976563,65.45669272460937,141.13063500976563C58.60599272460937,141.32963500976564,51.76439272460937,140.4966350097656,45.161292724609375,138.66163500976563C45.161292724609375,138.66163500976563,29.939792724609376,152.44563500976562,29.939792724609376,152.44563500976562C28.755792724609375,153.52463500976563,27.046092724609377,153.80263500976562,25.581092724609373,153.15463500976563C24.116092724609373,152.50563500976563,23.172192724609374,151.05363500976563,23.174592724609376,149.45163500976562C23.174592724609376,149.45163500976562,23.174692724609375,126.58563500976562,23.174692724609375,126.58563500976562C9.210032724609375,113.89663500976563,1.0915677246093751,96.01413500976562,0.731292724609375,77.14933500976562C0.731292724609375,77.14933500976562,0.731292724609375,66.35893500976562,0.731292724609375,66.35893500976562C0.961044724609375,56.03203500976562,3.756712724609375,45.92463500976562,8.866362724609376,36.94753500976562C7.741942724609375,34.48423500976563,7.115442724609375,31.823035009765626,7.022852724609375,29.116835009765627C7.029812724609375,21.334335009765624,10.994592724609374,14.089735009765626,17.545792724609374,9.888755009765624C24.097092724609375,5.687755009765625,32.33519272460937,5.1072450097656255,39.410892724609376,8.348025009765625C55.72839272460938,1.176845009765625,74.30529272460937,1.176845009765625,90.62279272460937,8.348015009765625C97.69849272460938,5.107185009765625,105.93629272460937,5.687665009765626,112.48829272460938,9.888705009765625C119.03929272460938,14.089735009765626,123.00429272460937,21.334435009765624,123.01129272460938,29.117035009765626C122.92629272460937,31.923035009765623,122.35329272460937,34.69283500976562,121.31929272460937,37.30283500976562C126.30629272460938,46.192235009765625,129.03529272460938,56.169135009765625,129.26829272460938,66.35893500976562C129.26829272460938,66.35893500976562,129.26829272460938,77.14923500976562,129.26829272460938,77.14923500976562C128.93229272460937,95.49133500976562,121.32829272460937,112.94963500976563,108.12729272460938,125.68863500976562C108.12729272460938,125.68863500976562,108.12729272460938,149.51963500976564,108.12729272460938,149.51963500976564C108.11729272460937,151.1396350097656,107.14829272460938,152.60063500976563,105.65829272460938,153.23963500976564C105.15629272460937,153.42963500976563,104.62129272460938,153.51563500976562,104.08529272460937,153.49363500976563C104.08529272460937,153.49363500976563,104.08529272460937,153.49363500976563,104.08529272460937,153.49363500976563ZM29.872092724609374,14.352035009765626C21.728092724609375,14.370735009765625,15.133392724609376,20.973035009765624,15.124092724609374,29.116935009765626C15.310492724609375,31.291135009765625,15.956192724609375,33.400935009765625,17.018292724609374,35.30703500976563C17.612292724609375,36.50913500976562,17.574292724609375,37.927035009765625,16.916792724609376,39.09553500976563C11.538592724609375,48.63433500976563,8.815562724609375,57.71653500976562,8.815562724609375,66.35893500976562C8.815562724609375,66.35893500976562,8.815562724609375,77.14923500976562,8.815562724609375,77.14923500976562C9.122992724609375,94.31383500976563,16.777592724609374,110.52263500976562,29.838092724609375,121.66363500976563C30.745092724609375,122.43163500976563,31.275492724609375,123.55363500976563,31.292592724609374,124.74163500976563C31.292592724609374,124.74163500976563,31.292592724609374,140.33563500976564,31.292592724609374,140.33563500976564C31.292592724609374,140.33563500976564,41.44029272460938,131.08463500976563,41.44029272460938,131.08463500976563C42.558992724609375,130.0546350097656,44.16379272460937,129.74763500976565,45.583992724609374,130.28963500976562C50.65779272460937,132.20063500976562,56.79709272460938,133.06263500976561,65.38879272460937,133.06263500976561C72.35269272460937,133.2526350097656,79.28829272460938,132.10463500976562,85.81949272460938,129.68063500976564C87.29409272460937,129.10363500976564,88.96909272460937,129.43363500976562,90.11529272460938,130.52663500976564C90.11529272460938,130.52663500976564,100.06019272460938,139.96363500976562,100.06019272460938,139.96363500976562C100.06019272460938,139.96363500976562,100.06019272460938,123.89663500976563,100.06019272460938,123.89663500976563C100.06129272460937,122.73263500976563,100.55979272460938,121.62463500976563,101.43029272460937,120.85163500976563C113.75729272460937,109.62863500976563,120.91029272460938,93.81793500976562,121.20129272460937,77.14933500976562C121.20129272460937,77.14933500976562,121.20129272460937,66.35893500976562,121.20129272460937,66.35893500976562C121.20129272460937,57.90253500976562,118.56329272460937,48.87103500976563,113.35329272460937,39.51833500976562C112.74329272460938,38.408435009765626,112.68029272460937,37.078135009765624,113.18429272460938,35.915935009765626C114.18229272460937,33.79193500976562,114.75629272460938,31.494235009765625,114.87629272460937,29.150735009765626C114.88229272460937,23.871835009765626,112.06629272460937,18.992335009765625,107.49229272460937,16.356335009765623C102.91829272460937,13.720435009765625,97.28469272460937,13.730035009765626,92.71999272460937,16.381635009765624C91.56309272460938,17.032635009765627,90.16099272460937,17.076835009765624,88.96539272460937,16.500035009765625C73.82559272460938,9.237705009765625,56.208192724609376,9.237705009765625,41.068392724609375,16.500035009765625C39.85979272460938,17.087435009765628,38.437392724609374,17.030335009765626,37.279892724609375,16.347735009765625C35.02929272460938,15.042135009765625,32.473992724609374,14.353735009765625,29.872092724609374,14.352035009765626C29.872092724609374,14.352035009765626,29.872092724609374,14.352035009765626,29.872092724609374,14.352035009765626Z" fill="#783741" fill-opacity="1"/></g><g><path d="M20.519218444846093,77.1493456604004C20.519157409646095,101.72474566040039,40.441487927246094,121.6470456604004,65.0168879272461,121.6470456604004C89.59218792724609,121.6470456604004,109.5144879272461,101.72474566040039,109.5144879272461,77.1493456604004C109.5145879272461,52.57394566040039,89.59218792724609,32.65164566040039,65.0168879272461,32.65164566040039C40.441487927246094,32.65164566040039,20.519187927246094,52.57394566040039,20.519187927246094,77.1493456604004C20.519187927246094,77.1493456604004,20.519218444846093,77.1493456604004,20.519218444846093,77.1493456604004Z" fill="#FFFFFF" fill-opacity="1"/></g><g><path d="M64.99998671875,124.33599104614258C38.92798671875,124.33609104614258,17.79327426875,103.19879104614257,17.796387062553,77.12679104614259C17.796387062553,51.06039104614258,38.93358671875,29.92569385614258,65.00558671875001,29.928791386584578C91.07198671875,29.928791386584578,112.20668671875,51.06599104614258,112.20358671875,77.13799104614259C112.17258671875,103.19409104614257,91.05598671875,124.30809104614258,64.99998671875,124.33609104614258C64.99998671875,124.33609104614258,64.99998671875,124.33599104614258,64.99998671875,124.33599104614258ZM64.99998671875,35.34082104614258C41.91198671875,35.350161046142574,23.20216671875,54.07259104614258,23.20840671875,77.16059104614257C23.21461671875,100.24859104614258,41.93448671875,118.96089104614258,65.02248671875,118.95779104614257C88.10488671875,118.95779104614257,106.82218671875,100.24289104614257,106.82528671875,77.15499104614258C106.80048671875,54.06749104614258,88.08738671875,35.35949104614258,64.99998671875,35.34082104614258C64.99998671875,35.34082104614258,64.99998671875,35.34082104614258,64.99998671875,35.34082104614258Z" fill="#783741" fill-opacity="1"/></g><g><path d="M89.67562709350585,79.83854067993164C89.67562709350585,79.83854067993164,64.99990709350585,79.83854067993164,64.99990709350585,79.83854067993164C63.51196709350586,79.83854067993164,62.30316139350586,78.63724067993164,62.29391458350586,77.14934067993164C62.29391458350586,77.14934067993164,62.29391458350586,50.08886067993164,62.29391458350586,50.08886067993164C62.21350079350586,49.07412067993164,62.70928909350586,48.10011667993164,63.57714709350586,47.56807367993164C64.44497709350586,47.03602967993164,65.53799709350587,47.03602967993164,66.40575709350585,47.56807367993164C67.27364709350586,48.10008667993164,67.76943709350586,49.07412067993164,67.68908709350586,50.08886067993164C67.68908709350586,50.08886067993164,67.68908709350586,74.44324067993165,67.68908709350586,74.44324067993165C67.68908709350586,74.44324067993165,89.67572709350586,74.44324067993165,89.67572709350586,74.44324067993165C91.08292709350586,74.55474067993164,92.16812709350586,75.72924067993164,92.16812709350586,77.14084067993164C92.16812709350586,78.55244067993164,91.08292709350586,79.72694067993163,89.67572709350586,79.83844067993164C89.67572709350586,79.83844067993164,89.67562709350585,79.83854067993164,89.67562709350585,79.83854067993164Z" fill="#783741" fill-opacity="1"/></g><g><path d="M58.843719482421875,77.14928762451171C58.843719482421875,80.55861762451173,61.60760948242188,83.32242762451172,65.01693948242188,83.32242762451172C68.42626948242187,83.32242762451172,71.19011948242188,80.55861762451173,71.19011948242188,77.14928762451171C71.19011948242188,73.73994762451171,68.42626948242187,70.97612762451172,65.01693948242188,70.97612762451172C61.60760948242188,70.97612762451172,58.843719482421875,73.73994762451171,58.843719482421875,77.14928762451171C58.843719482421875,77.14928762451171,58.843719482421875,77.14928762451171,58.843719482421875,77.14928762451171Z" fill="#FFBAB0" fill-opacity="1"/></g><g><path d="M65.00000479492188,86.01157967529296C60.10543479492188,86.01157967529296,56.137664794921875,82.04377967529297,56.137664794921875,77.14934967529297C56.137664794921875,72.25477967529297,60.10543479492188,68.28697967529297,65.00000479492188,68.28697967529297C69.89446479492187,68.28697967529297,73.86226479492187,72.25477967529297,73.86226479492187,77.14927967529297C73.85306479492188,82.03997967529297,69.89066479492188,86.00237967529297,65.00000479492188,86.01157967529296C65.00000479492188,86.01157967529296,65.00000479492188,86.01157967529296,65.00000479492188,86.01157967529296ZM65.00000479492188,73.68214967529298C63.143554794921876,73.72859967529297,61.671694794921876,75.26295967529296,61.70245479492188,77.11967967529297C61.73321479492188,78.97647967529296,63.25506479492188,80.46117967529297,65.11199479492187,80.44607967529296C66.96896479492187,80.43097967529297,68.46656479492188,78.92177967529297,68.46706479492187,77.06471967529296C68.42116479492188,75.18297967529297,66.88226479492188,73.68159967529297,65.00000479492188,73.68214967529298C65.00000479492188,73.68214967529298,65.00000479492188,73.68214967529298,65.00000479492188,73.68214967529298Z" fill="#783741" fill-opacity="1"/></g><g><path d="M67.48622222595215,41.378773345947266C67.49552222595216,42.74240334594727,66.39752222595214,43.855423345947266,65.03382222595215,43.864753345947264C63.67022222595215,43.87407334594727,62.557222225952145,42.77618334594727,62.547822225952146,41.41251334594727C62.53842222595215,40.048813345947266,63.63632222595215,38.93573227594727,64.99992222595215,38.926332861847264C66.36372222595215,38.91696396594727,67.47682222595215,40.014913345947264,67.48612222595216,41.37869334594727C67.48612222595216,41.37869334594727,67.48622222595215,41.378773345947266,67.48622222595215,41.378773345947266ZM103.23982222595215,77.14927334594726C103.23982222595215,78.51307334594726,102.13432222595215,79.61857334594727,100.77052222595215,79.61857334594727C99.40682222595215,79.61857334594727,98.30132222595215,78.51307334594726,98.30132222595215,77.14927334594726C98.30132222595215,75.78557334594726,99.40682222595215,74.67997334594727,100.77052222595215,74.67997334594727C101.42682222595215,74.67547334594727,102.05752222595216,74.93417334594727,102.52162222595214,75.39817334594727C102.98572222595214,75.86227334594727,103.24432222595215,76.49297334594726,103.23982222595215,77.14927334594726C103.23982222595215,77.14927334594726,103.23982222595215,77.14927334594726,103.23982222595215,77.14927334594726ZM67.48622222595215,112.90287334594727C67.48622222595215,114.26447334594727,66.38412222595215,115.36907334594727,65.02262222595215,115.37217334594726C63.66112222595215,115.37537334594727,62.55392222595215,114.27577334594727,62.54772222595215,112.91427334594727C62.54152222595215,111.55277334594726,63.63842222595215,110.44307334594727,64.99992222595215,110.43377334594726C66.36652222595214,110.43377334594726,67.47692222595215,111.53657334594726,67.48622222595215,112.90307334594726C67.48622222595215,112.90307334594726,67.48622222595215,112.90287334594727,67.48622222595215,112.90287334594727ZM31.715512225952146,77.14927334594726C31.715512225952146,78.14947334594726,31.112062225952148,79.05097334594726,30.187322225952148,79.43217334594726C29.262482225952148,79.81327334594727,28.19908222595215,79.59897334594726,27.49424822595215,78.88927334594726C26.78938382595215,78.17957334594726,26.58230722595215,77.11467334594727,26.96984922595215,76.19257334594727C27.357362225952148,75.27047334594727,28.26294222595215,74.67317334594726,29.26318222595215,74.67997334594727C29.91656222595215,74.67997334594727,30.542912225952147,74.94077334594726,31.003292225952148,75.40427334594727C31.46362222595215,75.86787334594726,31.72000222595215,76.49597334594726,31.715512225952146,77.14927334594726C31.715512225952146,77.14927334594726,31.715512225952146,77.14927334594726,31.715512225952146,77.14927334594726Z" fill="#783741" fill-opacity="1"/></g></g></svg>