<svg xmlns="http://www.w3.org/2000/svg" xmlns:xlink="http://www.w3.org/1999/xlink" fill="none" version="1.1" width="131" height="85" viewBox="0 0 131 85"><g style="mix-blend-mode:passthrough"><g><path d="M106.72971705627441,38.17065825805664C106.73771705627442,37.84095825805664,106.77771705627441,37.515158258056644,106.77771705627441,37.18185825805664C106.77771705627441,19.34555825805664,92.31981705627442,4.887058258056669,74.48341705627442,4.887058258056669C61.616017056274416,4.887058258056669,50.539117056274414,12.43154825805664,45.34661705627441,23.32135825805664C43.096317056274415,22.18995825805664,40.593517056274415,21.49405825805664,37.90371705627442,21.49405825805664C29.659217056274414,21.49405825805664,22.859017056274414,27.49255825805664,21.520117056274415,35.35455825805664C11.676267056274414,38.71565825805664,4.587717056274414,48.02245825805664,4.587717056274414,59.00175825805664C4.587717056274414,72.80095825805664,15.774217056274415,83.98795825805664,29.569617056274414,83.99995825805664C29.569617056274414,83.99995825805664,106.77871705627442,83.99995825805664,106.77871705627442,83.99995825805664C106.77871705627442,83.99995825805664,106.77871705627442,83.99585825805664,106.77871705627442,83.99585825805664C119.38571705627442,83.93085825805665,129.5787170562744,73.70025825805664,129.5787170562744,61.08525825805664C129.5787170562744,48.44565825805664,119.35671705627442,38.20725825805664,106.72971705627441,38.17065825805664C106.72971705627441,38.17065825805664,106.72971705627441,38.17065825805664,106.72971705627441,38.17065825805664Z" fill="#98C4D8" fill-opacity="1"/></g><g><path d="M102.5628984375,34.003540185546875C102.5708984375,33.67384018554687,102.6108984375,33.34804018554688,102.6108984375,33.01474018554688C102.6108984375,15.178440185546876,88.1529984375,0.719940185546875,70.3165984375,0.719940185546875C57.4491984375,0.719940185546875,46.3722984375,8.264430185546875,41.1796984375,19.154240185546875C38.9294984375,18.022840185546876,36.4266984375,17.326940185546874,33.7368984375,17.326940185546874C25.4923984375,17.326940185546874,18.6921984375,23.325440185546874,17.3532984375,31.187440185546876C7.5094384375,34.54854018554688,0.4208984375,43.85534018554687,0.4208984375,54.834640185546874C0.4208984375,68.63384018554687,11.6073984375,79.82084018554687,25.4027984375,79.83284018554687C25.4027984375,79.83284018554687,102.6118984375,79.83284018554687,102.6118984375,79.83284018554687C102.6118984375,79.83284018554687,102.6118984375,79.82874018554688,102.6118984375,79.82874018554688C115.2188984375,79.76374018554688,125.4128984375,69.53324018554687,125.4128984375,56.918140185546875C125.4118984375,44.27864018554688,115.1898984375,34.04024018554688,102.5628984375,34.003540185546875C102.5628984375,34.003540185546875,102.5628984375,34.003540185546875,102.5628984375,34.003540185546875Z" fill="#EFD9A0" fill-opacity="1"/></g><g><path d="M44.06496277197266,29.140373981933593C45.23726377197266,30.847043981933595,49.12758377197265,30.211143981933596,52.75423377197266,27.719993981933595C56.38085377197265,25.228873981933596,58.37055377197265,21.825853981933594,57.19825377197266,20.119193981933595C56.025853771972656,18.412497981933594,52.135583771972655,19.048453981933594,48.50893377197266,21.539573981933593C44.88228377197266,24.030723981933594,42.89266077197266,27.433703981933593,44.06496277197266,29.140373981933593C44.06496277197266,29.140373981933593,44.06496277197266,29.140373981933593,44.06496277197266,29.140373981933593Z" fill="#FEFEFE" fill-opacity="1"/></g><g><path d="M36.01470149755859,42.25080470092773C36.79625249755859,43.388624700927735,39.04393249755859,43.20222470092774,41.03502249755859,41.83454470092774C43.02611249755859,40.46687470092773,44.0066724975586,38.435744700927735,43.22509249755859,37.29798870092773C42.443562497558595,36.160171700927734,40.19588249755859,36.346511700927735,38.20476249755859,37.71418470092773C36.2136754975586,39.081924700927736,35.233145497558596,41.112994700927736,36.01470149755859,42.25080470092773C36.01470149755859,42.25080470092773,36.01470149755859,42.25080470092773,36.01470149755859,42.25080470092773Z" fill="#FEFEFE" fill-opacity="1"/></g></g></svg>