<svg xmlns="http://www.w3.org/2000/svg" xmlns:xlink="http://www.w3.org/1999/xlink" fill="none" version="1.1" width="73" height="71" viewBox="0 0 73 71"><g style="mix-blend-mode:passthrough"><g><path d="M22.454995531463624,18.844834078833006C22.454995531463624,18.844834078833006,0.9634955314636229,22.79427017883301,4.495126531463623,46.57573017883301C8.026755531463623,70.35713017883302,37.34149553146362,69.130630178833,45.937295531463626,66.503830178833C54.53299553146363,63.87333017883301,71.72459553146362,54.685130178833006,63.89709553146362,32.846930178833006C59.754095531463626,21.589870178833007,50.08439553146362,18.56775017883301,45.478795531463625,18.844834078833006C40.87739553146362,19.11822617883301,22.454995531463624,18.844834078833006,22.454995531463624,18.844834078833006C22.454995531463624,18.844834078833006,22.454995531463624,18.844834078833006,22.454995531463624,18.844834078833006Z" fill="#ACACEF" fill-opacity="1"/></g><g><path d="M25.82684552822113,58.95955424804688C20.19364552822113,56.125954248046874,16.23464552822113,51.26395424804687,14.828445528221131,45.67795424804687C12.137385528221131,34.98605424804688,16.43544552822113,23.795384248046876,16.43544552822113,23.795384248046876C16.43544552822113,23.795384248046876,18.62844552822113,20.119354248046875,18.62844552822113,20.119354248046875C12.50988552822113,22.602054248046876,1.9300255282211305,29.440614248046877,4.503830528221131,46.57925424804688C8.08207552822113,70.36445424804688,37.78344552822113,69.13425424804687,46.49264552822113,66.50745424804688C50.20904552822113,65.38425424804687,55.51564552822113,63.064154248046876,59.75524552822113,59.077854248046876C46.04074552822113,65.52475424804688,33.59854552822113,62.86835424804688,25.82684552822113,58.95955424804688C25.82684552822113,58.95955424804688,25.82684552822113,58.95955424804688,25.82684552822113,58.95955424804688Z" fill="#9E9AEA" fill-opacity="1"/></g><g><path d="M34.822199999999995,68.96805909729004C28.7296,68.96805909729004,21.5634,67.75815909729005,15.5162,63.93095909729004C8.65849,59.59135909729004,4.58169,52.77735909729004,3.39698,43.66945909729004C1.50873,29.15495909729004,6.71676,20.97135909729004,11.41885,16.66111909729004C16.5199,11.985399097290038,22.0242,10.788116497290039,22.2546,10.737701397290039C22.3409,10.72090149729004,22.4315,10.708282497290039,22.5219,10.71249389729004C22.7071,10.716705297290039,40.8653,11.019165097290038,45.3493,10.716705297290039C50.2612,10.38061509729004,59.2333,13.817049097290038,63.8778,24.64725909729004C64.15350000000001,25.28585909729004,63.8655,26.02935909729004,63.2443,26.306659097290037C62.619,26.58815909729004,61.8909,26.294059097290038,61.6194,25.65975909729004C57.485,16.018359097290038,49.7223,12.95162909729004,45.5139,13.233049097290039C41.0957,13.535509097290038,24.5171,13.270859097290039,22.6289,13.237259097290039C21.835,13.434709097290039,17.1946,14.71180909729004,12.98209,18.614549097290038C6.84844,24.29435909729004,4.4419,32.616559097290036,5.836460000000001,43.34595909729004C6.9183699999999995,51.66815909729004,10.608419999999999,57.87305909729004,16.8079,61.79675909729004C26.8661,68.16135909729005,40.7171,66.64895909729003,45.4891,64.98115909729003C49.496,63.58225909729004,69.1927,55.39445909729004,63.4787,31.46535909729004C63.3183,30.78905909729004,63.7214,30.10845909729004,64.38380000000001,29.940459097290038C65.05019999999999,29.77235909729004,65.7125,30.19245909729004,65.8771,30.86465909729004C72.0971,56.91935909729004,50.6479,65.83815909729003,46.2873,67.36315909729004C43.9218,68.18655909729003,39.7176,68.96795909729005,34.822199999999995,68.96795909729005C34.822199999999995,68.96795909729005,34.822199999999995,68.96805909729004,34.822199999999995,68.96805909729004Z" fill="#000F04" fill-opacity="1"/></g><g><path d="M28.20936224899292,10.821186542053223C26.03696224899292,8.781826542053222,17.23670224899292,1.5775965420532225,11.00411224899292,12.143826542053223C10.38713824899292,13.189356542053222,10.65683714899292,14.534176542053222,11.64696424899292,15.239796542053222C13.88582224899292,16.839516542053225,16.87836224899292,17.231116542053222,18.41897224899292,17.323516542053223C18.82168224899292,17.349316542053224,19.04703224899292,17.796416542053223,18.82537224899292,18.128916542053222C17.84632224899292,19.617816542053223,16.26137224899292,23.109116542053222,18.98792224899292,27.557216542053222C19.49407224899292,28.384816542053223,20.46203224899292,28.82441654205322,21.41526224899292,28.643416542053224C27.40396224899292,27.505516542053222,29.15516224899292,25.643516542053224,30.57756224899292,22.942816542053222C30.78076224899292,22.554916542053224,31.31646224899292,22.51051654205322,31.59356224899292,22.846716542053223C33.98016224899292,25.743216542053222,36.60696224899292,27.85651654205322,43.14256224899292,26.341716542053224C44.07726224899292,26.123816542053223,44.79396224899292,25.351616542053222,44.92326224899292,24.40211654205322C45.46266224899292,20.452716542053224,44.39126224899292,17.27541654205322,42.48856224899292,15.657316542053223C42.13756224899292,15.358026542053222,42.296462248992924,14.792776542053222,42.74716224899292,14.693016542053222C44.38756224899292,14.330956542053222,45.79886224899292,13.488606542053223,46.74836224899292,12.498496542053223C47.57966224899292,11.630286542053224,47.57596224899292,10.263326542053223,46.77786224899292,9.365566542053223C43.78906224899292,6.003562542053222,36.21536224899292,1.7475465420532226,29.13296224899292,10.754696542053223C28.90766224899292,11.046566542053224,28.47906224899292,11.072406542053223,28.20936224899292,10.821186542053223C28.20936224899292,10.821186542053223,28.20936224899292,10.821186542053223,28.20936224899292,10.821186542053223Z" fill="#BFE5BD" fill-opacity="1"/></g><g><path d="M42.74715120620728,14.700407021484375C32.92355120620728,13.943037021484376,34.24615120620727,8.874187021484374,36.787951206207275,5.526947021484375C36.769551206207275,5.530639651484375,36.75105120620728,5.534332271484375,36.728851206207274,5.538024921484375C35.48385120620728,5.848358021484375,34.42715120620727,6.276932021484375,33.53315120620728,6.764607021484375C32.46545120620728,7.388977021484375,31.382951206207274,8.249787021484375,30.307851206207275,9.398777021484374C29.350951206207274,10.569927021484375,29.025851206207275,11.515717021484374,29.025851206207275,11.515717021484374C29.025851206207275,11.515717021484374,28.914951206207274,11.297747021484376,28.685951206207275,10.994797021484375C28.519651206207275,11.005887021484375,28.346051206207274,10.950467021484375,28.213051206207275,10.824857021484375C27.638951206207274,10.285247021484375,27.031851206207275,9.781827021484375,26.395351206207273,9.317507021484374C26.070251206207274,9.202977021484376,25.715551206207273,9.117997021484374,25.323951206207276,9.077367021484374C17.868441206207276,15.675747021484375,13.176421206207275,14.238567021484375,10.841522206207275,12.487367021484374C10.453613206207276,13.470107021484374,10.760253606207275,14.615407021484375,11.646926206207276,15.247157021484375C13.885801206207276,16.846847021484376,16.878321206207275,17.238447021484376,18.418941206207275,17.330847021484374C18.821641206207275,17.356747021484374,19.047001206207277,17.803747021484376,18.825331206207274,18.136247021484373C18.274851206207273,18.971247021484373,17.535951206207276,20.434247021484374,17.473141206207274,22.344347021484374C21.400351206207276,16.322247021484372,26.687251206207275,15.830947021484375,27.592351206207276,17.031647021484375C30.954351206207274,21.897247021484375,22.205851206207278,28.488247021484376,22.198451206207274,28.495647021484373C27.562851206207274,27.346647021484376,29.221651206207277,25.532647021484376,30.581251206207277,22.953947021484375C30.784451206207276,22.565947021484376,31.320151206207274,22.521647021484377,31.597251206207275,22.857847021484375C33.18955120620728,24.786347021484374,34.88905120620727,26.367647021484373,37.774451206207274,26.759247021484374C38.19565120620727,26.774047021484375,38.583551206207275,26.803547021484373,38.91605120620727,26.851647021484375C34.999851206207275,25.750647021484376,31.161251206207275,20.951447021484377,32.25855120620727,17.655947021484373C33.35585120620728,14.360487021484374,43.035351206207274,16.207747021484373,43.035351206207274,16.207747021484373C42.86175120620727,16.015647021484376,42.68065120620727,15.830947021484375,42.488551206207276,15.668347021484376C42.13395120620727,15.365407021484375,42.29645120620728,14.796447021484376,42.74715120620728,14.700397021484376C42.74715120620728,14.700397021484376,42.74715120620728,14.700407021484375,42.74715120620728,14.700407021484375Z" fill="#A2DD9E" fill-opacity="1"/></g><g><path d="M20.99406452636719,29.799756160736084C19.811764526367188,29.799756160736084,18.677614526367186,29.179156160736085,18.042164526367188,28.144656160736083C17.495374526367186,27.254256160736084,17.074204526367186,26.341756160736082,16.797104526367185,25.432856160736083C16.682584526367187,25.063456160736084,16.590224526367187,24.686656160736085,16.520024526367187,24.313456160736084C16.407794526367187,23.711556160736084,16.804774526367186,23.132656160736083,17.406704526367186,23.020356160736085C18.008624526367186,22.908156160736084,18.587554526367185,23.305156160736082,18.69978452636719,23.907056160736083C18.755204526367187,24.195256160736083,18.825394526367187,24.490756160736083,18.914064526367188,24.778956160736083C19.139424526367186,25.510456160736084,19.483014526367185,26.253056160736083,19.933764526367188,26.988256160736086C20.20346452636719,27.427956160736084,20.716964526367185,27.660656160736085,21.208364526367188,27.564656160736085C27.064164526367186,26.452556160736084,28.423664526367187,24.660756160736085,29.598564526367188,22.436656160736085C29.864564526367186,21.928356160736083,30.368664526367187,21.588056160736084,30.93966452636719,21.531556160736084C31.515564526367186,21.471756160736085,32.08306452636719,21.704856160736085,32.45066452636719,22.152156160736084C34.54916452636719,24.697656160736084,36.784364526367185,26.689056160736083,42.89496452636719,25.270356160736085C43.38636452636719,25.155856160736082,43.763164526367184,24.749456160736084,43.82966452636719,24.261756160736084C44.284164526367185,20.944056160736086,43.497164526367186,17.973756160736084,41.77556452636719,16.510656160736083C41.296764526367184,16.104156160736082,41.090464526367185,15.460956160736083,41.24356452636719,14.851856160736084C41.39546452636719,14.230836160736084,41.889264526367185,13.751436160736084,42.514464526367185,13.617876160736085C43.833364526367184,13.326006160736084,45.08586452636719,12.642516160736085,45.95406452636719,11.737366160736084C46.375164526367186,11.297726160736083,46.375164526367186,10.580996160736085,45.95406452636719,10.108096160736084C44.33586452636719,8.290406160736083,41.44676452636719,6.384046160736084,38.20296452636718,6.480106160736084C35.28796452636719,6.568766160736084,32.53186452636719,8.238676160736084,30.012264526367186,11.445496160736084C29.712764526367188,11.825256160736084,29.267964526367187,12.062366160736083,28.78566452636719,12.099426160736083C28.29916452636719,12.135696160736085,27.819664526367188,11.966916160736083,27.463064526367187,11.633926160736085C26.32516452636719,10.566226160736084,22.298164526367188,7.122956160736084,18.21572452636719,7.706666160736084C15.832774526367189,8.046566160736084,13.730604526367188,9.731266160736084,11.972034526367187,12.712706160736085C11.643214526367188,13.274276160736084,11.783614526367188,13.972536160736084,12.304534526367188,14.345656160736084C14.306944526367188,15.775456160736084,17.044574526367185,16.137556160736082,18.49650452636719,16.226156160736082C19.076534526367187,16.263156160736084,19.597464526367187,16.606756160736083,19.856064526367188,17.123956160736086C20.114664526367186,17.641156160736085,20.07776452636719,18.265556160736082,19.760064526367188,18.749556160736084C19.50140452636719,19.141156160736085,19.279734526367186,19.562356160736083,19.102404526367188,20.001956160736086C18.991984526367187,20.274556160736083,18.777634526367187,20.492156160736084,18.506604526367187,20.606456160736084C18.235594526367187,20.720856160736083,17.930224526367187,20.722656160736083,17.65785452636719,20.611556160736082C17.38520452636719,20.501156160736084,17.16770452636719,20.286756160736083,17.053324526367188,20.015756160736082C16.938964526367187,19.744756160736085,16.937144526367188,19.439356160736082,17.048264526367188,19.166956160736085C17.159104526367187,18.889956160736084,17.28471452636719,18.620256160736083,17.42511452636719,18.354256160736085C15.648054526367186,18.154756160736085,13.069294526367187,17.611656160736082,11.015154526367187,16.144856160736083C9.552139226367187,15.103056160736084,9.145736526367187,13.141266160736084,10.061965526367187,11.582196160736084C12.178924526367187,7.9911461607360845,14.816784526367186,5.948086160736084,17.90165452636719,5.508456160736084C22.490264526367188,4.854522160736084,26.68346452636719,7.957896160736084,28.600864526367186,9.668456160736085C31.46416452636719,6.188236160736084,34.670964526367186,4.370544160736084,38.14006452636718,4.263397080736084C42.13746452636719,4.141479160736084,45.66576452636719,6.4431461607360845,47.61646452636719,8.633986160736084C48.802364526367185,9.967716160736085,48.77656452636719,12.003376160736085,47.56106452636719,13.270586160736084C46.593064526367186,14.279156160736084,45.329564526367186,15.062456160736083,43.93306452636719,15.524256160736083C45.75446452636719,17.596856160736085,46.53766452636719,20.888656160736083,46.035264526367186,24.560956160736083C45.843064526367186,25.957456160736083,44.78646452636719,27.110156160736086,43.40476452636719,27.431556160736083C36.540364526367185,29.020156160736082,33.52566452636719,26.773956160736084,31.216564526367186,24.110256160736085C29.60586452636719,26.836856160736083,27.348564526367188,28.650856160736083,21.622164526367186,29.740656160736084C21.411564526367187,29.781356160736085,21.200964526367187,29.799756160736084,20.99406452636719,29.799756160736084C20.99406452636719,29.799756160736084,20.99406452636719,29.799756160736084,20.99406452636719,29.799756160736084Z" fill="#000F04" fill-opacity="1"/></g><g><path d="M34.6605698815918,1.1083488464355469C34.6605698815918,1.1083488464355469,29.813400881591797,6.598358846435547,29.078202011591795,12.915948846435548C29.033859981591796,13.784148846435547,30.404529881591795,15.202848846435547,33.1975598815918,14.197948846435548C34.294849881591794,13.787848846435548,34.113819881591795,12.321148846435547,34.113819881591795,11.131448846435546C34.113819881591795,9.941878846435547,36.4930598815918,3.062708846435547,37.682659881591796,1.832484846435547C36.7220898815918,1.1083641052355468,34.6605698815918,1.1083641052355468,34.6605698815918,1.1083641052355468C34.6605698815918,1.1083641052355468,34.6605698815918,1.1083488464355469,34.6605698815918,1.1083488464355469Z" fill="#A2DD9E" fill-opacity="1"/></g><g><path d="M34.85801769042969,15.6535C33.709027690429686,15.6535,32.947947690429686,15.2545,32.52308769042969,14.9405C31.795303690429687,14.4011,31.388870090429688,13.6216,31.42582688042969,12.8568C31.42582688042969,12.8346,31.429519500429688,12.8088,31.433212130429688,12.7866C32.19798269042969,6.20307,37.078387690429686,0.609589,37.28529769042969,0.373138C37.49586769042969,0.133003,37.79877769042969,0,38.116527690429685,0C38.52290769042969,0,40.610307690429686,0.0443344,41.80730769042969,0.949486C42.06230769042969,1.1416,42.22110769042969,1.43346,42.24330769042969,1.7475C42.26540769042969,2.06153,42.154607690429685,2.37556,41.93290769042969,2.60461C40.990857690429685,3.57627,38.703967690429685,10.0933,38.674397690429686,11.1352C38.674397690429686,11.2719,38.67811769042969,11.416,38.67811769042969,11.5638C38.70026769042969,12.7719,38.733537690429685,14.6007,37.03773769042969,15.2361C36.199107690429685,15.5391,35.471267690429684,15.6536,34.85798769042969,15.6536C34.85798769042969,15.6536,34.85801769042969,15.6535,34.85801769042969,15.6535ZM33.64622769042969,12.9455C33.67579769042969,13.0083,33.771837690429685,13.1376,33.98609769042969,13.2521C34.29273769042969,13.4147,35.00208769042969,13.6142,36.273027690429686,13.1561C36.48728769042969,13.0748,36.47248769042969,12.1179,36.46143769042969,11.6044C36.45771769042969,11.4455,36.454057690429686,11.2867,36.454057690429686,11.1315C36.454057690429686,10.001,38.075947690429686,4.96907,39.47242769042969,2.36074C39.18797769042969,2.30532,38.88871769042969,2.26468,38.611647690429685,2.24252C37.55128769042969,3.56884,34.252117690429685,8.03179,33.64622769042969,12.9454C33.64622769042969,12.9454,33.64622769042969,12.9455,33.64622769042969,12.9455ZM49.55840769042969,51.3683C49.04770769042969,51.3688,48.60290769042969,51.0202,48.48100769042969,50.5243C48.35930769042969,50.0283,48.592107690429685,49.5133,49.04490769042969,49.2772C54.00660769042969,46.691,56.84030769042968,42.749,57.46830769042968,37.5657C57.54220769042969,36.9598,58.09270769042969,36.5238,58.70230769042969,36.5977C59.30820769042968,36.6716,59.744107690429686,37.2221,59.67030769042969,37.8317C59.17520769042969,41.9252,57.10630769042969,47.574,50.07190769042968,51.2427C49.905707690429686,51.3276,49.732107690429686,51.3683,49.55840769042969,51.3683C49.55840769042969,51.3683,49.55840769042969,51.3683,49.55840769042969,51.3683ZM58.48800769042968,33.5866C57.94490769042969,33.5866,57.47200769042969,33.1876,57.39440769042969,32.6372C57.39440769042969,32.6372,57.16540769042969,31.0559,57.16540769042969,31.0559C57.07760769042969,30.4499,57.49770769042969,29.8875,58.10380769042969,29.7998C58.709807690429685,29.712,59.27220769042969,30.1322,59.35990769042969,30.7382C59.35990769042969,30.7382,59.58890769042969,32.3194,59.58890769042969,32.3194C59.63510769042969,32.6385,59.54020769042969,32.9619,59.32870769042969,33.2052C59.11730769042968,33.4486,58.810407690429685,33.5878,58.48800769042968,33.5866C58.48800769042968,33.5866,58.48800769042968,33.5866,58.48800769042968,33.5866Z" fill="#000F04" fill-opacity="1"/></g></g></svg>