<svg xmlns="http://www.w3.org/2000/svg" xmlns:xlink="http://www.w3.org/1999/xlink" fill="none" version="1.1" width="129" height="133" viewBox="0 0 129 133"><g style="mix-blend-mode:passthrough"><g><path d="M120.89070497512817,43.94299252243042C120.78770497512818,43.73779252243042,120.79970497512818,43.49349252243042,120.92170497512818,43.29909252243042C123.14870497512817,39.76909252243042,125.32870497512818,34.415992522430415,124.58370497512817,27.58879252243042C123.44370497512817,18.92279252243042,122.39570497512817,13.83345252243042,122.03170497512818,12.17326252243042C121.95470497512818,11.830952522430419,121.62570497512817,11.60693252243042,121.27870497512818,11.66123252243042C121.27870497512818,11.66123252243042,108.15770497512817,13.55422252243042,108.15770497512817,13.55422252243042C108.14270497512817,13.55422252243042,108.13470497512817,13.55422252243042,108.11970497512817,13.56197252243042C107.72370497512817,13.59302252243042,101.12840497512818,14.15935252243042,96.25570497512817,17.72037252243042C96.04620497512818,17.87553252243042,95.77460497512817,17.898802522430422,95.54960497512818,17.77469252243042C92.56620497512817,16.17232252243042,89.45120497512818,14.827852522430419,86.23870497512817,13.75592252243042C85.37750497512818,13.46887252243042,84.91970497512817,12.53790252243042,85.24560497512817,11.69225252243042C85.24560497512817,11.69225252243042,85.34640497512818,11.42072252243042,85.34640497512818,11.42072252243042C85.90510497512817,9.969932522430419,84.83430497512818,8.418292522430448,83.28250497512818,8.418292522430448C83.28250497512818,8.418292522430448,52.021304975128174,8.418292522430448,52.021304975128174,8.418292522430448C50.438504975128176,8.418292522430448,49.36770497512818,10.02423252243042,49.98070497512818,11.48277252243042C50.33760497512817,12.34393252243042,49.879804975128174,13.31371252243042,48.987504975128175,13.600752522430419C45.682704975128175,14.66889252243042,42.478704975128174,16.02666252243042,39.412804975128175,17.658302522430418C39.187804975128174,17.77467252243042,38.92400497512817,17.751402522430418,38.722304975128175,17.611762522430418C33.87290497512817,14.15935252243042,27.417304975128175,13.60852252243042,27.021604975128174,13.577482522430419C27.006104975128174,13.577482522430419,26.998304975128175,13.577482522430419,26.982804975128175,13.56973252243042C26.982804975128175,13.56973252243042,13.862174975128173,11.67665252243042,13.862174975128173,11.67665252243042C13.516264975128173,11.62553252243042,13.188964975128174,11.84821252243042,13.109534975128174,12.188682522430419C12.744864975128174,13.84895252243042,11.697384975128173,18.93829252243042,10.556804975128173,27.60419252243042C9.835214975128174,34.19859252243042,11.852564975128175,39.419892522430416,13.994064975128174,42.95769252243042C14.110454975128174,43.15169252243042,14.125984975128173,43.39209252243042,14.017344975128175,43.59389252243042C9.962484975128174,51.63259252243042,7.789454975128174,60.48829252243042,7.662685135128174,69.49079252243041C7.460932975128173,82.69519252243042,11.643074975128174,95.01529252243041,18.859004975128173,105.06209252243042C18.936604975128176,105.17069252243041,18.97540497512817,105.29489252243042,18.983104975128175,105.41899252243041C18.983104975128175,105.41899252243041,19.836604975128175,128.0342925224304,19.836604975128175,128.0342925224304C19.88080497512817,129.18929252243043,20.829504975128174,130.10429252243043,21.98590497512817,130.10529252243043C21.98590497512817,130.10529252243043,26.074904975128174,130.10529252243043,26.074904975128174,130.10529252243043C26.889604975128172,130.10529252243043,27.642304975128173,129.6402925224304,28.006904975128172,128.91129252243041C28.006904975128172,128.91129252243041,32.06490497512817,120.95829252243043,32.06490497512817,120.95829252243043C32.24340497512817,120.60229252243042,36.068604975128174,121.16829252243042,36.40220497512817,121.37729252243042C45.04580497512817,126.67629252243042,55.13270497512817,129.84129252243042,65.91770497512817,130.09829252243043C77.91330497512817,130.3852925224304,89.11730497512818,127.11829252243042,98.58340497512818,121.29229252243042C98.91710497512817,121.08329252243043,99.35930497512817,121.20729252243042,99.53780497512817,121.56429252243042C99.53780497512817,121.56429252243042,103.18450497512818,128.91829252243042,103.18450497512818,128.91829252243042C103.54920497512818,129.65529252243041,104.29410497512818,130.1132925224304,105.11650497512818,130.1132925224304C105.11650497512818,130.1132925224304,113.04670497512818,130.1132925224304,113.04670497512818,130.1132925224304C114.20370497512818,130.11429252243042,115.15370497512818,129.19829252243042,115.19570497512818,128.04229252243042C115.19570497512818,128.04229252243042,116.06470497512818,105.12419252243042,116.06470497512818,105.12419252243042C116.07270497512818,104.99999252243042,116.11070497512817,104.87589252243042,116.18070497512818,104.76729252243042C123.03270497512817,95.04619252243042,127.07470497512817,83.19949252243042,127.07470497512817,70.40619252243042C127.07470497512817,60.89459252243042,124.83970497512817,51.91829252243042,120.89070497512817,43.94299252243042C120.89070497512817,43.94299252243042,120.89070497512817,43.94299252243042,120.89070497512817,43.94299252243042ZM65.90230497512817,100.78729252243042C53.37140497512817,100.78729252243042,40.73180497512817,92.01279252243042,40.73180497512817,79.48329252243042C40.73180497512817,66.95389252243042,51.974704975128176,53.29169252243042,64.50570497512817,53.29169252243042C77.03660497512817,53.29169252243042,88.87680497512818,65.20049252243042,88.87680497512818,77.72999252243042C88.87680497512818,90.25949252243042,78.43310497512817,100.78729252243042,65.90230497512817,100.78729252243042C65.90230497512817,100.78729252243042,65.90230497512817,100.78729252243042,65.90230497512817,100.78729252243042Z" fill="#FFA750" fill-opacity="1"/></g><g><path d="M112.204,132.02599169921876C112.204,132.02599169921876,104.001,132.02599169921876,104.001,132.02599169921876C102.272,132.02599169921876,100.7188,131.06199169921874,99.9536,129.50899169921877C99.9536,129.50899169921877,96.9541,123.46399169921875,96.9541,123.46399169921875C86.7924,129.33299169921875,75.238,132.27899169921875,63.4466,132.00299169921874C52.8794,131.75099169921876,42.4957,128.83499169921873,33.3059,123.54799169921876C33.3059,123.54799169921876,30.3523,129.50899169921877,30.3523,129.50899169921877C29.5871,131.06199169921874,28.0338,132.01899169921876,26.3044,132.01899169921876C26.3044,132.01899169921876,18.1017,132.01899169921876,18.1017,132.01899169921876C15.6608,132.01899169921876,13.679,130.10599169921875,13.5872,127.66499169921875C13.5872,127.66499169921875,12.7225,104.77799169921875,12.7225,104.77799169921875C4.8564,93.64449169921875,0.800907,80.60569169921875,1.0075183,67.03909169921874C1.152896,57.58909169921875,3.31073,48.52159169921875,7.42742,40.06629169921875C5.33081,36.35519169921875,3.22654,30.66979169921875,4.00704,23.53069169921875C5.19307,14.53979169921875,6.27198,9.22173169921875,6.68518,7.35463169921875C7.02847,5.83144169921875,8.482859999999999,4.82633169921875,10.02905,5.04376169921875C10.02905,5.04376169921875,23.5422,6.99500169921875,23.5422,6.99500169921875C24.5293,7.07916169921875,30.7197,7.72193169921875,35.8923,11.01987169921875C38.7235,9.57367169921875,41.6771,8.33406169921875,44.6843,7.32402169921875C44.3782,6.09207169921875,44.6001,4.77596169921875,45.3194,3.69705169921875C46.1693,2.41917769921875,47.603,1.65208789921875,49.1377,1.65399524781875C49.1377,1.65399524781875,81.4437,1.65399524781875,81.4437,1.65399524781875C82.9511,1.65399524781875,84.3667,2.3962286992187503,85.2237,3.64348169921875C85.9991,4.77046169921875,86.2293,6.18535169921875,85.8512,7.50002169921875C88.7436,8.49475169921875,91.5901,9.71906169921875,94.3371,11.14231169921875C99.548,7.73723169921875,105.868,7.07916169921875,106.871,6.99500169921875C106.871,6.99500169921875,120.384,5.04376169921875,120.384,5.04376169921875C121.93,4.82187169921875,123.399,5.83957169921875,123.728,7.35463169921875C124.141,9.21404169921875,125.22,14.50909169921875,126.406,23.48479169921875C127.217,30.86889169921875,124.983,36.68429169921875,122.764,40.46429169921875C126.903,49.11089169921875,129,58.37729169921875,129,68.01859169921875C129,81.12619169921875,125.059,93.71359169921875,117.599,104.45699169921875C117.599,104.45699169921875,116.719,127.66499169921875,116.719,127.66499169921875C116.627,130.11299169921875,114.637,132.02599169921876,112.204,132.02599169921876C112.204,132.02599169921876,112.204,132.02599169921876,112.204,132.02599169921876ZM97.6274,118.21499169921876C97.9028,118.21499169921876,98.1783,118.25299169921875,98.4538,118.32899169921875C99.2572,118.55899169921875,99.9306,119.12499169921875,100.3055,119.87499169921875C100.3055,119.87499169921875,104.07,127.47299169921875,104.07,127.47299169921875C104.07,127.47299169921875,112.135,127.43499169921876,112.135,127.43499169921876C112.135,127.43499169921876,113.031,103.82099169921875,113.031,103.82099169921875C113.053,103.24799169921874,113.237,102.69699169921876,113.566,102.22199169921875C120.659,92.16769169921875,124.409,80.34559169921874,124.409,68.02609169921875C124.409,58.79799169921875,122.343,49.94469169921875,118.264,41.71129169921875C117.798,40.77779169921875,117.851,39.69129169921875,118.41,38.80359169921875C120.376,35.68169169921875,122.572,30.58559169921875,121.853,24.04319169921875C120.927,17.026491699218752,120.07,12.32819169921875,119.558,9.81078169921875C119.558,9.81078169921875,107.491,11.55539169921875,107.491,11.55539169921875C107.452,11.56304169921875,107.376,11.57070169921875,107.338,11.57070169921875C107.031,11.59365169921875,100.7417,12.12929169921875,96.2194,15.43489169921875C95.2935,16.10829169921875,94.0463,16.20009169921875,93.0439,15.65679169921875C90.0773,14.06149169921875,86.9797,12.72269169921875,83.7851,11.65489169921875C82.7593,11.31105169921875,81.917,10.56543169921875,81.4513,9.58885169921875C80.9922,8.617081699218751,80.954,7.52286169921875,81.3365,6.51282169921875C81.3365,6.51282169921875,81.4437,6.22969169921875,81.4437,6.22969169921875C81.4437,6.22969169921875,49.1453,6.24500169921875,49.1453,6.24500169921875C49.5737,7.23975169921875,49.5584,8.38751169921875,49.0993,9.37462169921875C48.636,10.38016169921875,47.7731,11.14595169921875,46.7196,11.48651169921875C43.4335,12.55289169921875,40.2461,13.90209169921875,37.1931,15.51899169921875C36.1976,16.04859169921875,34.9881,15.96859169921875,34.0711,15.31249169921875C29.5565,12.09869169921875,23.3968,11.57834169921875,23.1366,11.56304169921875C23.083,11.55539169921875,22.9836,11.54775169921875,22.93,11.54009169921875C22.93,11.54009169921875,10.87069,9.80312169921875,10.87069,9.80312169921875C10.35801,12.32059169921875,9.501,17.03409169921875,8.575109999999999,24.08149169921875C8.016539999999999,29.14699169921875,9.10311,33.99829169921875,11.8119,38.45169169921875C12.3475,39.33929169921875,12.3934,40.41049169921875,11.9266,41.33639169921875C7.87115,49.38619169921875,5.74394,58.05569169921875,5.6062,67.10009169921875C5.41491,79.83279169921875,9.26379,92.07579169921875,16.7397,102.48999169921875C17.084,102.96399169921875,17.2753,103.52299169921875,17.2982,104.11199169921875C17.2982,104.11199169921875,18.1782,127.41999169921876,18.1782,127.41999169921876C18.1782,127.41999169921876,26.3121,127.41999169921876,26.3121,127.41999169921876C26.3121,127.41999169921876,29.9774,119.95099169921875,29.9774,119.95099169921875C30.3446,119.20199169921875,31.018,118.64299169921875,31.8214,118.40599169921875C32.6249,118.17599169921876,33.4972,118.29099169921875,34.2165,118.73499169921875C43.0773,124.15999169921875,53.2237,127.15899169921875,63.569,127.40399169921875C75.062,127.67199169921875,86.3102,124.64999169921875,96.0663,118.64299169921875C96.5331,118.36799169921875,97.0764,118.21399169921875,97.6273,118.21399169921875C97.6273,118.21399169921875,97.6274,118.21499169921876,97.6274,118.21499169921876ZM31.7984,122.65999169921875C31.8061,122.65999169921875,31.8061,122.65999169921875,31.7984,122.65999169921875C31.8061,122.65999169921875,31.8061,122.65999169921875,31.7984,122.65999169921875C31.7984,122.65999169921875,31.7984,122.65999169921875,31.7984,122.65999169921875ZM13.0055,105.18299169921875C13.0055,105.18299169921875,13.0055,105.18299169921875,13.0055,105.18299169921875ZM122.373,39.66829169921875C122.373,39.66829169921875,122.373,39.67599169921875,122.373,39.66829169921875C122.373,39.67599169921875,122.373,39.66829169921875,122.373,39.66829169921875C122.373,39.66829169921875,122.373,39.66829169921875,122.373,39.66829169921875ZM95.2094,11.61669169921875C95.2094,11.61669169921875,95.2094,11.61669169921875,95.2094,11.61669169921875Z" fill="#333333" fill-opacity="1"/></g><g><path d="M50.438602447509766,81.08509142456055C50.438602447509766,90.71179142456054,58.24256244750977,98.51579142456055,67.86930244750977,98.51579142456055C77.49590244750976,98.51579142456055,85.29990244750977,90.71179142456054,85.29990244750977,81.08509142456055C85.29990244750977,71.45845142456055,77.49590244750976,63.65449142456055,67.86920244750976,63.65449142456055C58.24256244750977,63.65449142456055,50.438602447509766,71.45845142456055,50.438602447509766,81.08519142456055C50.438602447509766,81.08519142456055,50.438602447509766,81.08509142456055,50.438602447509766,81.08509142456055Z" fill="#FF917B" fill-opacity="1"/></g><g><path d="M64.99997205200195,100.12555827026367C53.094992052001956,100.12555827026367,43.41057205200195,90.44115827026367,43.41057205200195,78.53615827026367C43.41057205200195,66.63114827026368,53.094992052001956,56.94675827026367,64.99997205200195,56.94675827026367C76.90497205200195,56.94675827026367,86.58937205200195,66.63114827026368,86.58937205200195,78.53615827026367C86.58937205200195,90.44115827026367,76.90497205200195,100.12555827026367,64.99997205200195,100.12555827026367C64.99997205200195,100.12555827026367,64.99997205200195,100.12555827026367,64.99997205200195,100.12555827026367ZM64.99997205200195,60.797408270263674C55.219272052001955,60.797408270263674,47.261222052001955,68.75545827026367,47.261222052001955,78.53615827026367C47.261222052001955,88.31685827026368,55.219272052001955,96.27485827026368,64.99997205200195,96.27485827026368C74.78067205200196,96.27485827026368,82.73867205200196,88.31685827026368,82.73867205200196,78.53615827026367C82.73867205200196,68.75545827026367,74.78067205200196,60.797408270263674,64.99997205200195,60.797408270263674C64.99997205200195,60.797408270263674,64.99997205200195,60.797408270263674,64.99997205200195,60.797408270263674Z" fill="#333333" fill-opacity="1"/></g><g><path d="M53.62583557739258,78.16092006225585C49.71793557739258,78.16092006225585,46.546535577392575,75.80552006225585,46.546535577392575,72.91752006225586C46.546535577392575,70.02312006225586,49.72653557739258,67.67432006225586,53.62583557739258,67.67432006225586C57.525135577392575,67.67432006225586,60.70523557739258,70.02952006225587,60.70523557739258,72.91752006225586C60.70523557739258,75.80552006225585,57.525135577392575,78.16092006225585,53.62583557739258,78.16092006225585C53.62583557739258,78.16092006225585,53.62583557739258,78.16092006225585,53.62583557739258,78.16092006225585ZM53.62583557739258,71.52492006225586C52.58603557739258,71.52492006225586,51.74553557739257,72.14742006225586,51.74553557739257,72.91752006225586C51.74553557739257,73.68772006225586,52.58603557739258,74.31022006225587,53.62583557739258,74.31022006225587C54.66563557739258,74.31022006225587,55.50613557739258,73.68772006225586,55.50613557739258,72.91752006225586C55.50613557739258,72.14742006225586,54.65703557739258,71.52492006225586,53.62583557739258,71.52492006225586C53.62583557739258,71.52492006225586,53.62583557739258,71.52492006225586,53.62583557739258,71.52492006225586ZM76.96093557739258,78.16092006225585C73.06163557739258,78.16092006225585,69.88163557739259,75.80552006225585,69.88163557739259,72.91752006225586C69.88163557739259,70.02312006225586,73.06163557739258,67.67432006225586,76.96093557739258,67.67432006225586C80.86023557739259,67.67432006225586,84.04033557739257,70.02952006225587,84.04033557739257,72.91752006225586C84.04033557739257,75.80552006225585,80.86893557739258,78.16092006225585,76.96093557739258,78.16092006225585C76.96093557739258,78.16092006225585,76.96093557739258,78.16092006225585,76.96093557739258,78.16092006225585ZM76.96093557739258,71.52492006225586C75.92113557739258,71.52492006225586,75.08063557739257,72.14742006225586,75.08063557739257,72.91752006225586C75.08063557739257,73.68772006225586,75.92113557739258,74.31022006225587,76.96093557739258,74.31022006225587C78.00073557739258,74.31022006225587,78.84133557739258,73.68772006225586,78.84133557739258,72.91752006225586C78.84133557739258,72.14742006225586,78.00073557739258,71.52492006225586,76.96093557739258,71.52492006225586C76.96093557739258,71.52492006225586,76.96093557739258,71.52492006225586,76.96093557739258,71.52492006225586ZM48.75613557739258,48.78672006225586C47.31773557739258,48.78672006225586,46.15663557739258,47.92672006225586,46.15663557739258,46.86135006225586C46.15663557739258,43.69741006225586,42.68193557739258,41.12387006225586,38.41003557739258,41.12387006225586C34.138205577392576,41.12387006225586,30.66353557739258,43.69741006225586,30.66353557739258,46.86135006225586C30.66353557739258,47.92672006225586,29.502395577392576,48.78672006225586,28.06398557739258,48.78672006225586C26.625565577392578,48.78672006225586,25.464435577392635,47.92672006225586,25.464435577392635,46.86135006225586C25.464435577392635,41.57312006225586,31.270035577392576,37.27322006225586,38.41003557739258,37.27322006225586C45.55013557739258,37.27322006225586,51.355635577392576,41.57312006225586,51.355635577392576,46.86135006225586C51.355635577392576,47.92672006225586,50.19453557739258,48.78672006225586,48.75613557739258,48.78672006225586C48.75613557739258,48.78672006225586,48.75613557739258,48.78672006225586,48.75613557739258,48.78672006225586ZM102.46213557739257,48.78672006225586C101.02373557739257,48.78672006225586,99.86273557739258,47.92672006225586,99.86273557739258,46.86135006225586C99.86273557739258,43.69741006225586,96.38803557739257,41.12387006225586,92.11603557739258,41.12387006225586C87.84423557739258,41.12387006225586,84.36943557739258,43.69741006225586,84.36943557739258,46.86135006225586C84.36943557739258,47.92672006225586,83.20833557739257,48.78672006225586,81.76993557739257,48.78672006225586C80.33153557739257,48.78672006225586,79.17043557739258,47.92672006225586,79.17043557739258,46.86135006225586C79.17043557739258,41.57312006225586,84.97613557739257,37.27322006225586,92.11603557739258,37.27322006225586C99.25613557739258,37.27322006225586,105.06163557739258,41.57312006225586,105.06163557739258,46.86135006225586C105.06163557739258,47.92672006225586,103.90063557739258,48.78672006225586,102.46213557739257,48.78672006225586C102.46213557739257,48.78672006225586,102.46213557739257,48.78672006225586,102.46213557739257,48.78672006225586Z" fill="#333333" fill-opacity="1"/></g></g></svg>